<svg width="253" height="302" viewBox="0 0 253 302" fill="none" xmlns="http://www.w3.org/2000/svg">
<path d="M202.01 297.581C188.16 296.174 176.11 298.254 162.289 299.724C154.518 300.556 146.107 301.159 136.534 300.862C109.898 300.067 105.867 296.735 75.4182 297.827C73.3837 297.906 71.2485 297.978 69.2264 298.042C48.6893 298.525 28.7699 299.93 13.2861 298.819C11.607 298.723 10.0346 297.825 9.40858 297.305C8.68835 296.753 8.12981 296.078 7.8667 295.721C7.56791 295.319 7.33666 294.944 7.13742 294.586C6.95504 294.256 6.8349 294.01 6.70681 293.732C6.21437 292.642 5.97076 291.847 5.74746 291.12C5.30068 289.613 5.02351 288.376 4.75592 287.166C4.24286 284.808 3.85259 282.768 3.46205 281.049C0.580748 267.172 4.6053 265.506 2.73599 246.157C2.21963 240.439 1.90334 235.372 1.72982 230.663C1.2474 219.707 1.15466 210.209 1.54735 198.304C1.84332 188.183 1.6734 165.589 1.5474 145.02C1.44983 131.135 1.21036 118.139 0.527687 110.531C-0.81141 95.5249 0.702138 78.8386 1.71478 66.1339C1.97507 62.8414 2.20184 59.841 2.3386 57.2116C2.54679 53.1593 2.83171 50.0157 3.12815 47.5786C3.25384 46.5442 3.51678 46.0759 3.77633 46.0741C3.7765 46.0741 3.77667 46.0741 3.77683 46.0741C4.1 46.0744 4.41776 46.8111 4.45859 48.1316C4.59946 52.6909 4.90433 58.8572 5.48962 66.1339C5.72789 69.0745 6.01268 72.2147 6.35256 75.4981C8.55599 96.6659 6.10974 98.9637 7.37167 127.52C7.65628 133.786 8.00319 139.489 8.37662 144.932C9.7335 164.319 11.2902 180.385 11.474 206.554C11.5382 216.016 12.1799 223.381 12.8119 230.334C13.5731 238.773 14.696 246.314 15.6534 255.7C16.1399 260.4 16.5806 265.562 17.0349 271.489C17.267 274.454 17.4954 277.577 17.8105 280.89C17.9651 282.507 18.1481 284.212 18.3808 285.779C18.4959 286.558 18.6366 287.33 18.7488 287.847C18.7988 288.099 18.8634 288.298 18.7673 288.178C18.7382 288.142 18.6899 288.072 18.6095 287.966C18.5193 287.85 18.4488 287.752 18.1985 287.483C17.9615 287.237 17.634 286.926 17.092 286.585C16.4454 286.173 15.4397 285.755 14.2961 285.681C14.9521 285.781 15.6306 285.876 16.3212 285.965C40.7614 288.055 54.7192 285.21 68.9482 283.724C81.0614 282.272 93.8769 280.614 115.61 280.136C130.406 279.814 146.431 279.955 162.285 280.29C185.703 280.693 209.193 282.442 227.614 284C229.776 284.193 231.478 284.191 231.802 284.118C231.975 284.093 231.719 284.172 231.476 284.394C231.226 284.61 231.132 284.833 231.196 284.746C232.878 281.608 233.95 278.688 234.578 276.011C238.099 264.293 231.266 248.307 230.003 226.887C229.231 209.34 228.979 190.694 228.421 171.694C228.231 165.331 227.886 158.747 227.308 152.074C226.381 142.129 226.542 132.526 226.321 122.658C225.908 94.7064 225.486 65.236 226.086 37.8669C226.095 37.4256 226.104 36.9931 226.113 36.569C226.193 32.7639 226.265 28.7894 226.278 24.8086C226.282 22.8039 226.274 20.7974 226.209 18.8983C226.177 17.9595 226.125 17.0304 226.055 16.3495C226.025 16.0219 225.976 15.7538 226.007 15.8087C226.024 15.835 226.075 15.9736 226.199 16.2012C226.315 16.4225 226.534 16.717 226.553 16.7215C226.482 15.3848 219.864 13.8342 213.778 14.3153C207.453 14.565 200.885 15.6937 193.623 16.2956C181.373 17.2486 169.223 17.09 158.834 17.7598C144.268 18.9334 131.166 19.672 121.77 19.7844C121.504 19.7891 121.237 19.7938 120.97 19.7984C106.541 19.9889 97.9249 22.0199 88.6558 23.2194C80.0274 24.2228 71.3503 24.9468 57.8287 25.8209C45.9383 26.7146 30.2292 26.213 16.1288 26.7874L15.9886 26.8081C13.2933 26.9275 11.2046 27.0842 10.089 28.5735C8.97651 30.0755 8.37744 32.6547 7.58228 34.8684C6.00488 39.4312 4.6235 40.8517 4.45331 40.1864C4.25029 39.4946 4.89323 36.8138 5.65654 32.1311C5.99729 30.4241 6.21281 28.6884 7.29438 26.7804C9.36109 23.3477 13.3328 23.1286 15.5458 22.8102L15.3987 22.8319C23.9156 21.6078 30.4299 21.7461 35.2466 20.591C49.488 17.3661 55.5014 16.3281 73.3612 16.919C79.0363 17.0656 83.7249 16.5893 87.6685 15.8006C95.8409 14.0067 102.081 10.802 109.565 10.2425C113.563 9.92584 116.123 10.0916 120.394 10.1829C126.343 10.3179 135.534 10.2912 157.685 7.23792C162.563 6.60214 167.866 6.19943 173.687 5.66201C180.325 5.05735 186.488 4.38718 192.313 3.60308C199.456 2.54628 206.965 0.789711 214.35 0.208391C221.494 -0.0325918 230.513 -1.32638 238.471 7.35797C238.901 7.87634 239.557 8.85998 239.941 9.70072C240.343 10.5539 240.566 11.2553 240.733 11.8442C241.06 13.0376 241.186 13.849 241.309 14.6363C241.536 16.1756 241.649 17.4345 241.754 18.684C241.954 21.1538 242.074 23.4055 242.181 25.6041C242.388 29.9677 242.521 33.9181 242.638 37.6759C242.845 44.3861 242.989 50.2448 243.125 55.4757C243.517 70.2334 242.601 96.6281 242.444 122.573C242.451 132.297 242.275 142.137 243.27 150.401C243.279 150.486 243.289 150.571 243.298 150.658C245.478 169.682 246.006 199.462 247.05 226.216C248.011 244.294 255.555 265.344 251.375 279.988C250.266 285.287 248.538 289.455 246.834 292.804C244.549 298.106 237.562 301.455 234.226 301.542C230.614 301.946 228.511 301.562 226.717 301.35C219.499 300.349 214.214 298.85 202.01 297.581Z" fill="#3B5BDB"/>
<path d="M113.21 167.729C112.52 173.44 115.787 177.9 115.4 184.838C115.018 191.797 113.312 192.851 113.812 200.798C114.074 204.909 113.927 209.056 113.841 212.549L113.842 212.574C113.739 215.821 113.671 218.581 114.023 220.28C114.751 223.841 112.63 224.223 113.095 229.27C113.549 234.332 113.23 237.394 112.443 241.797C111.697 246.206 110.536 259.71 110.981 264.691C111.488 269.686 109.487 275.184 108.759 278.495C108.534 279.53 108.289 280.337 108.059 280.947C107.962 281.206 107.81 281.313 107.675 281.296C107.675 281.296 107.675 281.296 107.675 281.296C107.507 281.276 107.365 281.065 107.384 280.721C107.48 279.047 107.489 276.53 107.159 273.538C106.518 267.968 107.847 267.48 107.731 260.033C107.566 252.591 106.569 248.118 107.508 239.419C108.398 230.69 105.246 228.698 106.934 216.362C107.117 215.008 107.237 213.767 107.306 212.663L107.307 212.685C107.815 203.588 105.103 201.382 104.574 190.398C103.985 178.069 105.721 162.463 105.529 155.043C105.336 147.604 104.904 137.629 105.31 127.089C105.375 125.372 105.401 123.621 105.4 121.787L105.401 121.864C105.163 113.718 104.939 104.182 104.565 96.2368C104.464 94.765 104.46 93.4724 104.476 92.1615C104.704 80.3275 105.508 63.9241 106.062 56.2985C106.632 48.6908 106.764 46.8318 106.301 39.5301C106.037 35.3166 106.225 29.5175 107.077 24.6304C107.507 22.1819 108.106 22.7078 108.396 25.2101C108.821 28.8099 108.556 31.8142 109.315 33.6582C110.836 37.3782 111.421 38.9533 110.588 43.6665C109.757 48.3816 111.766 50.5768 111.569 53.3213C111.38 56.0631 110.179 56.0398 111.32 69.9601C112.415 82.893 112.883 90.6049 113.498 95.3169C113.554 95.719 113.605 96.1081 113.652 96.4863C114.368 102.267 113.2 113.076 113.804 121.686L113.805 121.763C113.805 121.771 113.805 121.779 113.806 121.787C114.194 130.401 113.928 147.906 114.57 154.954C115.21 161.993 113.902 162.031 113.21 167.729Z" fill="#3B5BDB"/>
<path d="M139.623 155.59C144.485 155.952 148.269 153.212 153.771 152.744L153.813 152.742C154.453 152.693 155.106 152.675 155.786 152.695C162.356 152.89 163.409 154.546 170.925 153.904C176.666 153.42 182.418 153.904 186.316 153.819C187.514 153.793 188.549 153.712 189.344 153.529C192.673 152.762 193.071 154.886 197.813 154.333C202.559 153.782 205.439 154.017 209.609 154.648C213.772 155.278 226.543 155.693 231.172 154.781C235.802 153.868 241.114 155.274 244.302 155.582C245.295 155.678 246.077 155.816 246.677 155.964C246.931 156.026 247.05 156.162 247.052 156.298C247.052 156.298 247.052 156.298 247.052 156.298C247.054 156.468 246.875 156.637 246.55 156.662C244.97 156.787 242.611 157.093 239.828 157.744C234.64 158.957 234.052 157.7 227.033 158.383C220.015 159.066 215.807 160.299 207.532 159.661C199.439 159.042 197.476 162.095 186.457 160.747C186.213 160.718 185.967 160.687 185.72 160.653C174.028 159.112 172.913 162.473 161.351 163.366C159.081 163.543 156.69 163.64 154.249 163.681L154.291 163.68C144.338 163.912 133.74 163.439 128.156 163.979C121.181 164.635 111.921 165.811 101.965 166.288C92.0525 166.748 79.7913 169.016 68.5985 168.508C66.9231 168.435 65.1511 168.345 63.3056 168.233C53.0404 167.603 40.9294 166.873 34.8306 166.338C27.6653 165.708 25.9158 165.566 19.0135 165.994C15.0568 166.239 9.58293 166.034 4.96597 165.181C2.64869 164.751 3.19084 164.151 5.5074 163.862C8.94536 163.438 11.7245 163.712 13.4899 162.958C17.0071 161.45 18.5129 160.87 22.9401 161.727C27.4012 162.584 29.4688 160.591 32.0587 160.808C34.6648 161.023 34.6023 162.199 47.7752 161.221C54.1953 160.741 59.2234 160.426 63.2458 160.199C67.3957 159.961 70.4658 159.736 72.9679 159.519C77.8475 159.128 88.1907 159.379 96.2448 158.261C104.28 157.15 120.826 156.014 127.459 154.964C134.081 153.887 134.195 155.198 139.623 155.59Z" fill="#3B5BDB"/>
</svg>
