<svg width="1728" height="1117" viewBox="0 0 1728 1117" fill="none" xmlns="http://www.w3.org/2000/svg">
<rect width="1728" height="1117" fill="#FAF8F2"/>
<rect x="364" y="316" width="988" height="579" rx="4" fill="white"/>
<path d="M481.408 316L482.464 312.16C485.472 312.16 488.16 311.104 490.528 308.992C492.96 306.816 494.592 304.096 495.424 300.832L506.656 258.4C507.616 254.816 508.096 252.192 508.096 250.528C508.096 248.544 507.36 247.296 505.888 246.784C504.48 246.208 502.048 245.92 498.592 245.92L499.648 242.08H522.688L529.504 299.296H529.888L566.08 242.08H586.336L585.28 245.92C582.848 245.92 580.96 246.336 579.616 247.168C578.272 248 577.12 249.536 576.16 251.776C575.264 254.016 574.24 257.312 573.088 261.664L563.008 299.872C562.24 302.624 561.856 304.864 561.856 306.592C561.856 308.768 562.624 310.24 564.16 311.008C565.696 311.776 568.16 312.16 571.552 312.16L570.4 316H539.776L540.832 312.16C543.2 312.16 545.12 311.872 546.592 311.296C548.064 310.72 549.248 309.632 550.144 308.032C551.104 306.368 552 303.968 552.832 300.832L565.504 253.12H565.12L525.76 316H521.632L514.144 253.12H513.76L501.472 299.872C501.28 300.64 501.12 301.376 500.992 302.08C500.864 302.784 500.8 303.456 500.8 304.096C500.8 306.656 501.536 308.64 503.008 310.048C504.544 311.392 506.56 312.096 509.056 312.16L507.904 316H481.408ZM575.83 340.96C573.206 340.96 571.094 340.224 569.494 338.752C567.894 337.28 567.094 335.488 567.094 333.376C567.094 331.776 567.574 330.464 568.534 329.44C569.43 328.48 570.582 328 571.99 328C573.27 328 574.23 328.352 574.87 329.056C575.51 329.824 575.99 330.656 576.31 331.552C576.63 332.512 577.014 333.344 577.462 334.048C577.91 334.816 578.582 335.2 579.478 335.2C580.694 335.2 582.198 334.528 583.99 333.184C585.846 331.904 587.734 330.208 589.654 328.096C591.574 326.048 593.334 323.84 594.934 321.472C596.534 319.168 597.686 316.992 598.39 314.944L593.206 287.968C591.99 282.72 590.902 279.104 589.942 277.12C588.982 275.072 587.926 274.048 586.774 274.048C585.558 274.048 584.438 274.976 583.414 276.832C582.454 278.624 581.462 281.504 580.438 285.472L576.886 284.512C577.782 280.544 578.966 277.024 580.438 273.952C581.974 270.88 583.67 268.48 585.526 266.752C587.382 265.024 589.238 264.16 591.094 264.16C592.31 264.16 593.334 264.608 594.166 265.504C595.062 266.4 595.958 268.064 596.854 270.496C597.622 272.48 598.454 275.168 599.35 278.56C600.31 281.952 601.238 285.824 602.134 290.176L605.398 305.632H605.782C607.382 303.584 608.982 301.184 610.582 298.432C612.246 295.68 613.622 292.832 614.71 289.888C615.798 286.88 616.342 284.096 616.342 281.536C616.342 280.64 616.278 279.52 616.15 278.176C616.086 276.768 615.99 275.392 615.862 274.048C615.734 272.64 615.67 271.584 615.67 270.88C615.67 268.576 616.246 266.88 617.398 265.792C618.55 264.704 619.766 264.16 621.046 264.16C622.71 264.16 623.926 264.864 624.694 266.272C625.462 267.68 625.846 269.312 625.846 271.168C625.846 273.28 625.398 275.872 624.502 278.944C623.606 281.952 622.358 285.28 620.758 288.928C619.158 292.576 617.302 296.352 615.19 300.256C613.078 304.096 610.806 307.904 608.374 311.68C605.942 315.456 603.446 319.008 600.886 322.336C596.022 328.608 591.51 333.28 587.35 336.352C583.254 339.424 579.414 340.96 575.83 340.96ZM668.186 245.92L669.434 242.08H695.45C699.802 242.08 704.09 242.624 708.314 243.712C712.538 244.736 716.314 246.656 719.642 249.472C723.226 252.416 725.85 255.968 727.514 260.128C729.242 264.288 730.106 268.608 730.106 273.088C730.106 276.928 729.53 280.768 728.378 284.608C727.226 288.448 725.658 292.064 723.674 295.456C721.69 298.848 719.386 301.824 716.762 304.384C712.282 308.8 707.322 311.84 701.882 313.504C696.442 315.168 690.618 316 684.41 316H650.81L651.866 312.16C654.618 312.16 656.762 311.904 658.298 311.392C659.898 310.88 661.178 309.824 662.138 308.224C663.098 306.56 663.994 304.096 664.826 300.832L675.866 258.4C676.058 257.824 676.314 257.024 676.634 256C676.954 254.912 677.242 253.824 677.498 252.736C677.818 251.584 677.978 250.656 677.978 249.952C677.978 248.672 677.53 247.776 676.634 247.264C675.738 246.688 674.682 246.336 673.466 246.208C672.25 246.016 671.098 245.92 670.01 245.92H668.186ZM687.674 251.776L676.346 293.824C675.642 296.384 675.098 298.368 674.714 299.776C674.394 301.184 674.17 302.24 674.042 302.944C673.978 303.648 673.946 304.224 673.946 304.672C673.946 306.4 674.298 307.744 675.002 308.704C675.77 309.664 676.666 310.368 677.69 310.816C678.778 311.264 679.834 311.552 680.858 311.68C681.946 311.744 682.842 311.776 683.546 311.776C688.538 311.776 692.954 310.976 696.794 309.376C700.698 307.712 704.026 305.504 706.778 302.752C709.594 300 711.898 296.896 713.69 293.44C715.482 289.984 716.794 286.432 717.626 282.784C718.522 279.072 718.97 275.52 718.97 272.128C718.97 264.128 716.794 257.92 712.442 253.504C708.154 249.088 702.234 246.88 694.682 246.88C692.826 246.88 691.322 247.168 690.17 247.744C689.082 248.256 688.25 249.6 687.674 251.776ZM748.447 316.96C744.095 316.96 740.703 315.584 738.271 312.832C735.903 310.08 734.719 306.24 734.719 301.312C734.719 297.792 735.295 294.272 736.447 290.752C737.663 287.168 739.295 283.808 741.343 280.672C743.391 277.472 745.727 274.656 748.351 272.224C750.975 269.728 753.727 267.776 756.607 266.368C759.551 264.896 762.495 264.16 765.439 264.16C768.511 264.16 771.007 264.96 772.927 266.56C774.911 268.096 775.903 270.08 775.903 272.512C775.903 274.752 775.071 277.056 773.407 279.424C771.807 281.728 769.535 283.968 766.591 286.144C763.711 288.32 760.383 290.272 756.607 292C752.831 293.664 748.799 294.976 744.511 295.936C744.383 296.832 744.287 297.728 744.223 298.624C744.159 299.456 744.127 300.32 744.127 301.216C744.127 304.608 744.767 307.2 746.047 308.992C747.327 310.784 749.151 311.68 751.519 311.68C753.887 311.68 756.319 310.752 758.815 308.896C761.375 307.04 763.743 304.48 765.919 301.216L768.991 303.232C766.239 307.712 763.103 311.136 759.583 313.504C756.127 315.808 752.415 316.96 748.447 316.96ZM745.471 291.616C749.567 290.464 753.215 288.896 756.415 286.912C759.679 284.928 762.239 282.72 764.095 280.288C765.951 277.792 766.879 275.264 766.879 272.704C766.879 270.016 765.759 268.672 763.519 268.672C761.855 268.672 760.127 269.312 758.335 270.592C756.543 271.872 754.815 273.6 753.151 275.776C751.551 277.952 750.079 280.416 748.735 283.168C747.391 285.856 746.303 288.672 745.471 291.616ZM784.548 278.848C784.548 276.032 785.22 273.536 786.564 271.36C787.972 269.12 789.86 267.36 792.228 266.08C794.66 264.8 797.412 264.16 800.484 264.16C803.556 264.16 806.116 264.928 808.164 266.464C810.212 268 811.236 269.984 811.236 272.416C811.236 273.76 810.852 274.816 810.084 275.584C809.38 276.352 808.388 276.736 807.108 276.736C805.636 276.736 804.548 276.32 803.844 275.488C803.204 274.592 802.692 273.6 802.308 272.512C801.924 271.424 801.444 270.464 800.868 269.632C800.356 268.736 799.492 268.288 798.276 268.288C796.868 268.288 795.684 268.896 794.724 270.112C793.764 271.328 793.284 272.832 793.284 274.624C793.284 276.352 793.668 277.984 794.436 279.52C795.268 280.992 796.292 282.464 797.508 283.936C798.724 285.408 799.94 287.008 801.156 288.736C802.372 290.4 803.364 292.256 804.132 294.304C804.964 296.288 805.38 298.56 805.38 301.12C805.38 304 804.58 306.656 802.98 309.088C801.38 311.456 799.3 313.376 796.74 314.848C794.18 316.256 791.428 316.96 788.484 316.96C784.708 316.96 781.668 316.128 779.364 314.464C777.06 312.8 775.908 310.624 775.908 307.936C775.908 306.08 776.356 304.64 777.252 303.616C778.148 302.528 779.3 301.984 780.708 301.984C783.46 301.984 785.028 303.872 785.412 307.648C785.604 309.696 785.956 311.072 786.468 311.776C786.98 312.416 787.94 312.736 789.348 312.736C791.652 312.736 793.476 312.032 794.82 310.624C796.164 309.216 796.836 307.328 796.836 304.96C796.836 302.912 796.42 301.056 795.588 299.392C794.756 297.728 793.732 296.16 792.516 294.688C791.3 293.152 790.084 291.616 788.868 290.08C787.652 288.544 786.628 286.88 785.796 285.088C784.964 283.232 784.548 281.152 784.548 278.848ZM823.991 316.96C822.135 316.96 820.727 316.48 819.767 315.52C818.871 314.496 818.423 312.896 818.423 310.72C818.423 308.864 818.711 306.88 819.287 304.768C819.927 302.592 820.823 299.872 821.975 296.608L826.295 284.32C827.191 281.824 827.831 279.808 828.215 278.272C828.599 276.672 828.791 275.456 828.791 274.624C828.791 273.728 828.631 273.152 828.311 272.896C828.055 272.576 827.767 272.416 827.447 272.416C826.551 272.416 825.495 272.96 824.279 274.048C823.127 275.136 822.071 276.32 821.111 277.6C820.151 278.88 819.479 279.872 819.095 280.576L816.311 278.848C817.079 277.376 818.135 275.808 819.479 274.144C820.887 272.48 822.455 270.88 824.183 269.344C825.975 267.808 827.767 266.56 829.559 265.6C831.415 264.64 833.175 264.16 834.839 264.16C836.439 264.16 837.623 264.64 838.391 265.6C839.223 266.496 839.639 268.16 839.639 270.592C839.639 271.808 839.383 273.344 838.871 275.2C838.359 276.992 837.655 279.136 836.759 281.632C835.863 284.064 834.807 286.912 833.591 290.176L830.039 299.872C829.911 300.32 829.655 301.024 829.271 301.984C828.951 302.944 828.663 303.936 828.407 304.96C828.151 305.92 828.023 306.72 828.023 307.36C828.023 307.936 828.183 308.448 828.503 308.896C828.823 309.344 829.335 309.568 830.039 309.568C830.999 309.568 831.991 309.184 833.015 308.416C834.039 307.648 835.031 306.688 835.991 305.536C837.015 304.384 837.879 303.264 838.583 302.176C839.351 301.088 839.927 300.224 840.311 299.584L843.191 301.216C842.423 302.752 841.367 304.448 840.023 306.304C838.743 308.096 837.271 309.824 835.607 311.488C833.943 313.088 832.119 314.4 830.135 315.424C828.151 316.448 826.103 316.96 823.991 316.96ZM840.407 248.416C838.807 248.416 837.399 247.872 836.183 246.784C835.031 245.696 834.455 244.288 834.455 242.56C834.455 240.832 835.031 239.36 836.183 238.144C837.335 236.928 838.743 236.32 840.407 236.32C842.199 236.32 843.671 236.928 844.823 238.144C845.975 239.36 846.551 240.8 846.551 242.464C846.551 244.128 845.943 245.536 844.727 246.688C843.511 247.84 842.071 248.416 840.407 248.416ZM863.039 340.96C858.367 340.96 854.271 340.384 850.751 339.232C847.231 338.08 844.479 336.48 842.495 334.432C840.511 332.448 839.519 330.112 839.519 327.424C839.519 324.8 840.383 322.624 842.111 320.896C843.839 319.168 845.983 318.304 848.543 318.304C849.311 318.304 850.047 318.4 850.751 318.592C851.519 318.784 852.415 319.136 853.439 319.648C851.711 320.352 850.367 321.408 849.407 322.816C848.511 324.288 848.063 326.016 848.063 328C848.063 330.688 849.439 332.8 852.191 334.336C854.943 335.872 858.655 336.64 863.327 336.64C866.783 336.64 869.823 336.16 872.447 335.2C875.135 334.24 877.215 333.024 878.687 331.552C880.223 330.144 880.991 328.704 880.991 327.232C880.991 326.016 880.511 324.864 879.551 323.776C878.591 322.752 877.183 321.824 875.327 320.992C873.535 320.224 871.327 319.616 868.703 319.168C865.247 318.592 862.239 317.952 859.679 317.248C857.119 316.544 855.007 315.776 853.343 314.944C851.679 314.112 850.431 313.152 849.599 312.064C848.831 310.912 848.447 309.632 848.447 308.224C848.447 306.368 849.247 304.8 850.847 303.52C852.511 302.176 855.455 300.896 859.679 299.68L859.871 299.296C857.439 297.568 855.615 295.616 854.399 293.44C853.183 291.2 852.575 288.704 852.575 285.952C852.575 281.984 853.599 278.336 855.647 275.008C857.759 271.68 860.543 269.024 863.999 267.04C867.519 265.056 871.327 264.064 875.423 264.064C880.159 264.064 884.127 265.792 887.327 269.248C888.799 267.584 890.271 266.336 891.743 265.504C893.215 264.608 894.655 264.16 896.063 264.16C898.111 264.16 899.903 264.8 901.439 266.08C902.975 267.296 903.743 268.736 903.743 270.4C903.743 271.68 903.295 272.768 902.399 273.664C901.567 274.496 900.511 274.912 899.231 274.912C898.271 274.912 897.503 274.72 896.927 274.336C896.415 273.888 895.967 273.408 895.583 272.896C895.199 272.384 894.783 271.936 894.335 271.552C893.887 271.104 893.215 270.88 892.319 270.88C891.871 270.88 891.455 270.976 891.071 271.168C890.687 271.296 889.983 271.712 888.959 272.416C889.535 273.888 889.823 275.744 889.823 277.984C889.823 284.96 887.871 290.56 883.967 294.784C880.063 299.008 874.687 301.376 867.839 301.888C864.831 302.144 862.655 302.528 861.311 303.04C859.967 303.552 859.295 304.32 859.295 305.344C859.295 306.688 859.999 307.712 861.407 308.416C862.815 309.12 864.607 309.696 866.783 310.144C869.023 310.528 871.391 310.944 873.887 311.392C876.383 311.84 878.719 312.48 880.895 313.312C883.135 314.144 884.959 315.328 886.367 316.864C887.775 318.4 888.479 320.448 888.479 323.008C888.479 326.656 887.423 329.824 885.311 332.512C883.263 335.2 880.319 337.28 876.479 338.752C872.703 340.224 868.223 340.96 863.039 340.96ZM868.319 297.664C869.855 297.664 871.359 297.056 872.831 295.84C874.303 294.624 875.615 293.024 876.767 291.04C877.983 288.992 878.943 286.688 879.647 284.128C880.351 281.568 880.703 278.944 880.703 276.256C880.703 273.696 880.127 271.68 878.975 270.208C877.823 268.672 876.319 267.904 874.463 267.904C872.991 267.904 871.487 268.544 869.951 269.824C868.415 271.104 867.007 272.8 865.727 274.912C864.511 277.024 863.519 279.36 862.751 281.92C861.983 284.48 861.599 287.008 861.599 289.504C861.599 291.872 862.207 293.824 863.423 295.36C864.703 296.896 866.335 297.664 868.319 297.664ZM940.3 269.152C938.764 269.152 937.036 269.92 935.116 271.456C933.196 272.992 931.212 275.104 929.164 277.792C927.116 280.416 925.164 283.392 923.308 286.72C921.452 289.984 919.884 293.344 918.604 296.8L911.5 316H903.052L910.156 294.016C911.692 289.344 912.876 285.568 913.708 282.688C914.604 279.744 915.244 277.44 915.628 275.776C916.012 274.112 916.204 272.864 916.204 272.032C916.204 270.304 915.66 269.44 914.572 269.44C913.612 269.44 912.46 270.208 911.116 271.744C909.772 273.216 908.46 275.136 907.18 277.504C905.9 279.808 904.844 282.272 904.012 284.896L901.132 283.456C903.372 276.928 905.9 272.096 908.716 268.96C911.532 265.76 914.7 264.16 918.22 264.16C920.268 264.16 921.708 264.736 922.54 265.888C923.436 267.04 923.884 268.992 923.884 271.744C923.884 273.344 923.756 274.88 923.5 276.352C923.244 277.76 922.828 279.136 922.252 280.48L922.54 280.768C924.716 276.928 926.892 273.792 929.068 271.36C931.308 268.928 933.612 267.136 935.98 265.984C938.348 264.768 940.844 264.16 943.468 264.16C946.284 264.16 948.428 264.832 949.9 266.176C951.372 267.52 952.108 269.44 952.108 271.936C952.108 273.024 951.948 274.304 951.628 275.776C951.372 277.248 950.86 279.168 950.092 281.536C949.388 283.904 948.364 287.008 947.02 290.848C945.548 295.136 944.332 298.784 943.372 301.792C942.412 304.736 941.932 306.816 941.932 308.032C941.932 308.992 942.252 309.472 942.892 309.472C943.788 309.472 945.1 308.736 946.828 307.264C948.556 305.792 950.892 303.424 953.836 300.16L956.332 301.504C955.308 303.424 953.996 305.312 952.396 307.168C950.796 308.96 949.068 310.592 947.212 312.064C945.42 313.536 943.66 314.72 941.932 315.616C940.268 316.512 938.796 316.96 937.516 316.96C935.916 316.96 934.636 316.256 933.676 314.848C932.78 313.44 932.332 311.584 932.332 309.28C932.332 308.384 932.396 307.456 932.524 306.496C932.716 305.536 933.068 304.224 933.58 302.56C934.092 300.896 934.828 298.592 935.788 295.648C936.812 292.704 938.188 288.832 939.916 284.032C941.068 280.704 941.836 278.272 942.22 276.736C942.668 275.2 942.892 273.856 942.892 272.704C942.892 271.488 942.668 270.592 942.22 270.016C941.836 269.44 941.196 269.152 940.3 269.152ZM997.905 245.92L999.153 242.08H1025.17C1029.52 242.08 1033.81 242.624 1038.03 243.712C1042.26 244.736 1046.03 246.656 1049.36 249.472C1052.94 252.416 1055.57 255.968 1057.23 260.128C1058.96 264.288 1059.82 268.608 1059.82 273.088C1059.82 276.928 1059.25 280.768 1058.1 284.608C1056.94 288.448 1055.38 292.064 1053.39 295.456C1051.41 298.848 1049.1 301.824 1046.48 304.384C1042 308.8 1037.04 311.84 1031.6 313.504C1026.16 315.168 1020.34 316 1014.13 316H980.528L981.584 312.16C984.336 312.16 986.481 311.904 988.017 311.392C989.617 310.88 990.897 309.824 991.857 308.224C992.817 306.56 993.713 304.096 994.545 300.832L1005.58 258.4C1005.78 257.824 1006.03 257.024 1006.35 256C1006.67 254.912 1006.96 253.824 1007.22 252.736C1007.54 251.584 1007.7 250.656 1007.7 249.952C1007.7 248.672 1007.25 247.776 1006.35 247.264C1005.46 246.688 1004.4 246.336 1003.18 246.208C1001.97 246.016 1000.82 245.92 999.729 245.92H997.905ZM1017.39 251.776L1006.06 293.824C1005.36 296.384 1004.82 298.368 1004.43 299.776C1004.11 301.184 1003.89 302.24 1003.76 302.944C1003.7 303.648 1003.66 304.224 1003.66 304.672C1003.66 306.4 1004.02 307.744 1004.72 308.704C1005.49 309.664 1006.38 310.368 1007.41 310.816C1008.5 311.264 1009.55 311.552 1010.58 311.68C1011.66 311.744 1012.56 311.776 1013.26 311.776C1018.26 311.776 1022.67 310.976 1026.51 309.376C1030.42 307.712 1033.74 305.504 1036.5 302.752C1039.31 300 1041.62 296.896 1043.41 293.44C1045.2 289.984 1046.51 286.432 1047.34 282.784C1048.24 279.072 1048.69 275.52 1048.69 272.128C1048.69 264.128 1046.51 257.92 1042.16 253.504C1037.87 249.088 1031.95 246.88 1024.4 246.88C1022.54 246.88 1021.04 247.168 1019.89 247.744C1018.8 248.256 1017.97 249.6 1017.39 251.776ZM1073.83 316.96C1071.98 316.96 1070.57 316.48 1069.61 315.52C1068.71 314.496 1068.27 312.896 1068.27 310.72C1068.27 308.864 1068.55 306.88 1069.13 304.768C1069.77 302.592 1070.67 299.872 1071.82 296.608L1076.14 284.32C1077.03 281.824 1077.67 279.808 1078.06 278.272C1078.44 276.672 1078.63 275.456 1078.63 274.624C1078.63 273.728 1078.47 273.152 1078.15 272.896C1077.9 272.576 1077.61 272.416 1077.29 272.416C1076.39 272.416 1075.34 272.96 1074.12 274.048C1072.97 275.136 1071.91 276.32 1070.95 277.6C1069.99 278.88 1069.32 279.872 1068.94 280.576L1066.15 278.848C1066.92 277.376 1067.98 275.808 1069.32 274.144C1070.73 272.48 1072.3 270.88 1074.03 269.344C1075.82 267.808 1077.61 266.56 1079.4 265.6C1081.26 264.64 1083.02 264.16 1084.68 264.16C1086.28 264.16 1087.47 264.64 1088.23 265.6C1089.07 266.496 1089.48 268.16 1089.48 270.592C1089.48 271.808 1089.23 273.344 1088.71 275.2C1088.2 276.992 1087.5 279.136 1086.6 281.632C1085.71 284.064 1084.65 286.912 1083.43 290.176L1079.88 299.872C1079.75 300.32 1079.5 301.024 1079.11 301.984C1078.79 302.944 1078.51 303.936 1078.25 304.96C1077.99 305.92 1077.87 306.72 1077.87 307.36C1077.87 307.936 1078.03 308.448 1078.35 308.896C1078.67 309.344 1079.18 309.568 1079.88 309.568C1080.84 309.568 1081.83 309.184 1082.86 308.416C1083.88 307.648 1084.87 306.688 1085.83 305.536C1086.86 304.384 1087.72 303.264 1088.43 302.176C1089.19 301.088 1089.77 300.224 1090.15 299.584L1093.03 301.216C1092.27 302.752 1091.21 304.448 1089.87 306.304C1088.59 308.096 1087.11 309.824 1085.45 311.488C1083.79 313.088 1081.96 314.4 1079.98 315.424C1077.99 316.448 1075.95 316.96 1073.83 316.96ZM1090.25 248.416C1088.65 248.416 1087.24 247.872 1086.03 246.784C1084.87 245.696 1084.3 244.288 1084.3 242.56C1084.3 240.832 1084.87 239.36 1086.03 238.144C1087.18 236.928 1088.59 236.32 1090.25 236.32C1092.04 236.32 1093.51 236.928 1094.67 238.144C1095.82 239.36 1096.39 240.8 1096.39 242.464C1096.39 244.128 1095.79 245.536 1094.57 246.688C1093.35 247.84 1091.91 248.416 1090.25 248.416ZM1107.89 316.96C1104.69 316.96 1102.16 315.712 1100.31 313.216C1098.45 310.72 1097.52 307.328 1097.52 303.04C1097.52 299.52 1098.1 295.936 1099.25 292.288C1100.47 288.576 1102.1 285.056 1104.15 281.728C1106.26 278.4 1108.59 275.424 1111.15 272.8C1113.78 270.112 1116.53 268 1119.41 266.464C1122.29 264.928 1125.11 264.16 1127.86 264.16C1131.95 264.16 1134.77 266.272 1136.31 270.496L1138.32 265.12H1146.29L1140.82 279.808C1139.92 282.24 1139.03 284.832 1138.13 287.584C1137.3 290.336 1136.53 293.024 1135.83 295.648C1135.19 298.208 1134.67 300.512 1134.29 302.56C1133.91 304.608 1133.71 306.176 1133.71 307.264C1133.71 309.12 1134.32 310.048 1135.54 310.048C1136.43 310.048 1137.71 309.12 1139.38 307.264C1141.11 305.408 1143.03 303.008 1145.14 300.064L1147.63 302.08C1145.01 306.752 1142.13 310.4 1138.99 313.024C1135.86 315.648 1132.85 316.96 1129.97 316.96C1128.5 316.96 1127.35 316.416 1126.51 315.328C1125.75 314.176 1125.36 312.32 1125.36 309.76C1125.36 309.184 1125.39 308.512 1125.46 307.744C1125.52 306.912 1125.59 305.888 1125.65 304.672L1125.27 304.576C1124.05 306.944 1122.48 309.056 1120.56 310.912C1118.64 312.768 1116.56 314.24 1114.32 315.328C1112.15 316.416 1110 316.96 1107.89 316.96ZM1112.02 310.144C1113.81 310.144 1115.63 309.344 1117.49 307.744C1119.41 306.08 1121.23 303.904 1122.96 301.216C1124.75 298.528 1126.35 295.584 1127.76 292.384C1129.17 289.184 1130.29 286.048 1131.12 282.976C1131.95 279.84 1132.37 277.024 1132.37 274.528C1132.37 272.864 1132.02 271.552 1131.31 270.592C1130.61 269.632 1129.65 269.152 1128.43 269.152C1126.45 269.152 1124.43 269.888 1122.39 271.36C1120.34 272.768 1118.39 274.688 1116.53 277.12C1114.67 279.488 1112.98 282.144 1111.44 285.088C1109.97 288.032 1108.79 291.04 1107.89 294.112C1107.06 297.12 1106.64 299.936 1106.64 302.56C1106.64 304.864 1107.12 306.72 1108.08 308.128C1109.11 309.472 1110.42 310.144 1112.02 310.144ZM1155.82 279.712L1153.33 278.464C1154.03 276.864 1155.09 275.232 1156.5 273.568C1157.97 271.904 1159.57 270.368 1161.3 268.96C1163.02 267.488 1164.72 266.336 1166.38 265.504C1168.11 264.608 1169.62 264.16 1170.9 264.16C1172.43 264.16 1173.55 264.736 1174.26 265.888C1174.96 267.04 1175.31 268.896 1175.31 271.456C1175.31 273.376 1175.09 275.488 1174.64 277.792L1174.93 278.08C1176.02 275.584 1177.55 273.216 1179.54 270.976C1181.58 268.672 1183.76 266.816 1186.06 265.408C1188.43 263.936 1190.58 263.2 1192.5 263.2C1194.35 263.2 1195.89 263.808 1197.1 265.024C1198.38 266.176 1199.02 267.616 1199.02 269.344C1199.02 271.008 1198.48 272.384 1197.39 273.472C1196.37 274.56 1195.02 275.104 1193.36 275.104C1192.02 275.104 1190.99 274.816 1190.29 274.24C1189.65 273.6 1189.07 272.992 1188.56 272.416C1188.05 271.84 1187.41 271.552 1186.64 271.552C1185.04 271.552 1183.09 272.96 1180.78 275.776C1178.54 278.528 1176.27 282.272 1173.97 287.008C1171.66 291.68 1169.55 296.928 1167.63 302.752L1163.31 316H1154.38L1160.62 296.128C1162.29 291.008 1163.54 287.008 1164.37 284.128C1165.26 281.184 1165.87 278.944 1166.19 277.408C1166.51 275.872 1166.67 274.656 1166.67 273.76C1166.67 273.056 1166.54 272.544 1166.29 272.224C1166.1 271.84 1165.74 271.648 1165.23 271.648C1164.4 271.648 1163.34 272.064 1162.06 272.896C1160.78 273.728 1159.57 274.784 1158.42 276.064C1157.26 277.28 1156.4 278.496 1155.82 279.712ZM1193.55 340.96C1190.92 340.96 1188.81 340.224 1187.21 338.752C1185.61 337.28 1184.81 335.488 1184.81 333.376C1184.81 331.776 1185.29 330.464 1186.25 329.44C1187.15 328.48 1188.3 328 1189.71 328C1190.99 328 1191.95 328.352 1192.59 329.056C1193.23 329.824 1193.71 330.656 1194.03 331.552C1194.35 332.512 1194.73 333.344 1195.18 334.048C1195.63 334.816 1196.3 335.2 1197.2 335.2C1198.41 335.2 1199.92 334.528 1201.71 333.184C1203.56 331.904 1205.45 330.208 1207.37 328.096C1209.29 326.048 1211.05 323.84 1212.65 321.472C1214.25 319.168 1215.4 316.992 1216.11 314.944L1210.92 287.968C1209.71 282.72 1208.62 279.104 1207.66 277.12C1206.7 275.072 1205.64 274.048 1204.49 274.048C1203.28 274.048 1202.16 274.976 1201.13 276.832C1200.17 278.624 1199.18 281.504 1198.16 285.472L1194.6 284.512C1195.5 280.544 1196.68 277.024 1198.16 273.952C1199.69 270.88 1201.39 268.48 1203.24 266.752C1205.1 265.024 1206.96 264.16 1208.81 264.16C1210.03 264.16 1211.05 264.608 1211.88 265.504C1212.78 266.4 1213.68 268.064 1214.57 270.496C1215.34 272.48 1216.17 275.168 1217.07 278.56C1218.03 281.952 1218.96 285.824 1219.85 290.176L1223.12 305.632H1223.5C1225.1 303.584 1226.7 301.184 1228.3 298.432C1229.96 295.68 1231.34 292.832 1232.43 289.888C1233.52 286.88 1234.06 284.096 1234.06 281.536C1234.06 280.64 1234 279.52 1233.87 278.176C1233.8 276.768 1233.71 275.392 1233.58 274.048C1233.45 272.64 1233.39 271.584 1233.39 270.88C1233.39 268.576 1233.96 266.88 1235.12 265.792C1236.27 264.704 1237.48 264.16 1238.76 264.16C1240.43 264.16 1241.64 264.864 1242.41 266.272C1243.18 267.68 1243.56 269.312 1243.56 271.168C1243.56 273.28 1243.12 275.872 1242.22 278.944C1241.32 281.952 1240.08 285.28 1238.48 288.928C1236.88 292.576 1235.02 296.352 1232.91 300.256C1230.8 304.096 1228.52 307.904 1226.09 311.68C1223.66 315.456 1221.16 319.008 1218.6 322.336C1213.74 328.608 1209.23 333.28 1205.07 336.352C1200.97 339.424 1197.13 340.96 1193.55 340.96Z" fill="#D45FA8"/>
<path d="M444.18 397L442.5 382.4H444.22L445.32 393.2C445.347 393.493 445.373 393.8 445.4 394.12C445.427 394.427 445.447 394.72 445.46 395C445.487 395.28 445.5 395.513 445.5 395.7C445.527 395.513 445.547 395.28 445.56 395C445.587 394.72 445.613 394.427 445.64 394.12C445.68 393.8 445.72 393.493 445.76 393.2L447.12 382.4H448.98L450.22 393.2C450.26 393.493 450.293 393.8 450.32 394.12C450.36 394.427 450.393 394.72 450.42 395C450.46 395.28 450.487 395.513 450.5 395.7C450.513 395.513 450.527 395.28 450.54 395C450.567 394.72 450.593 394.427 450.62 394.12C450.66 393.8 450.693 393.493 450.72 393.2L451.86 382.4H453.5L451.78 397H449.52L448.28 386C448.253 385.693 448.22 385.393 448.18 385.1C448.153 384.807 448.127 384.533 448.1 384.28C448.073 384.027 448.053 383.82 448.04 383.66C448.027 383.82 448 384.027 447.96 384.28C447.933 384.533 447.907 384.807 447.88 385.1C447.853 385.393 447.82 385.693 447.78 386L446.44 397H444.18ZM455.832 397V382.4H457.632V386V388.1H458.012L457.632 388.52C457.632 387.653 457.892 386.987 458.412 386.52C458.932 386.04 459.652 385.8 460.572 385.8C461.679 385.8 462.559 386.14 463.212 386.82C463.866 387.5 464.192 388.427 464.192 389.6V397H462.392V389.8C462.392 389.013 462.179 388.407 461.752 387.98C461.339 387.54 460.772 387.32 460.052 387.32C459.306 387.32 458.712 387.553 458.272 388.02C457.846 388.487 457.632 389.147 457.632 390V397H455.832ZM471.024 397.2C469.864 397.2 468.951 396.907 468.284 396.32C467.618 395.72 467.284 394.913 467.284 393.9C467.284 392.873 467.618 392.067 468.284 391.48C468.951 390.893 469.851 390.6 470.984 390.6H474.384V389.5C474.384 388.82 474.178 388.3 473.764 387.94C473.364 387.567 472.791 387.38 472.044 387.38C471.391 387.38 470.844 387.52 470.404 387.8C469.964 388.067 469.711 388.433 469.644 388.9H467.844C467.964 387.953 468.411 387.2 469.184 386.64C469.958 386.08 470.924 385.8 472.084 385.8C473.351 385.8 474.351 386.127 475.084 386.78C475.818 387.433 476.184 388.32 476.184 389.44V397H474.424V394.9H474.124L474.424 394.6C474.424 395.4 474.111 396.033 473.484 396.5C472.871 396.967 472.051 397.2 471.024 397.2ZM471.464 395.78C472.318 395.78 473.018 395.567 473.564 395.14C474.111 394.713 474.384 394.167 474.384 393.5V391.94H471.024C470.424 391.94 469.951 392.107 469.604 392.44C469.258 392.773 469.084 393.227 469.084 393.8C469.084 394.413 469.291 394.9 469.704 395.26C470.131 395.607 470.718 395.78 471.464 395.78ZM485.177 397C484.23 397 483.49 396.747 482.957 396.24C482.437 395.733 482.177 395.02 482.177 394.1V387.64H479.077V386H482.177V382.9H483.977V386H488.377V387.64H483.977V394.1C483.977 394.94 484.377 395.36 485.177 395.36H488.177V397H485.177ZM493.169 387.7L494.769 381.48H497.369L494.769 387.7H493.169ZM507.621 397.16C506.874 397.16 506.221 397.047 505.661 396.82C505.114 396.58 504.674 396.247 504.341 395.82C504.021 395.393 503.828 394.887 503.761 394.3H505.561C505.641 394.687 505.854 394.993 506.201 395.22C506.561 395.447 507.034 395.56 507.621 395.56H508.461C509.168 395.56 509.694 395.42 510.041 395.14C510.388 394.847 510.561 394.46 510.561 393.98C510.561 393.513 510.401 393.147 510.081 392.88C509.774 392.6 509.314 392.413 508.701 392.32L507.221 392.08C506.141 391.893 505.334 391.56 504.801 391.08C504.281 390.587 504.021 389.873 504.021 388.94C504.021 387.953 504.334 387.193 504.961 386.66C505.588 386.113 506.528 385.84 507.781 385.84H508.541C509.594 385.84 510.441 386.087 511.081 386.58C511.721 387.073 512.108 387.74 512.241 388.58H510.441C510.361 388.233 510.161 387.96 509.841 387.76C509.521 387.547 509.088 387.44 508.541 387.44H507.781C507.101 387.44 506.601 387.567 506.281 387.82C505.974 388.073 505.821 388.453 505.821 388.96C505.821 389.413 505.954 389.747 506.221 389.96C506.488 390.173 506.908 390.327 507.481 390.42L508.961 390.66C510.148 390.847 511.008 391.193 511.541 391.7C512.088 392.207 512.361 392.94 512.361 393.9C512.361 394.913 512.034 395.713 511.381 396.3C510.741 396.873 509.768 397.16 508.461 397.16H507.621ZM529.165 400.6V398.96H532.665C533.225 398.96 533.632 398.833 533.885 398.58C534.152 398.327 534.285 397.933 534.285 397.4V396L534.325 394H533.965L534.305 393.7C534.305 394.5 534.039 395.133 533.505 395.6C532.972 396.067 532.259 396.3 531.365 396.3C530.232 396.3 529.339 395.933 528.685 395.2C528.032 394.453 527.705 393.453 527.705 392.2V389.88C527.705 388.627 528.032 387.633 528.685 386.9C529.339 386.167 530.232 385.8 531.365 385.8C532.259 385.8 532.972 386.033 533.505 386.5C534.039 386.967 534.305 387.6 534.305 388.4L533.965 388.1H534.305V386H536.085V397.4C536.085 398.387 535.779 399.167 535.165 399.74C534.565 400.313 533.725 400.6 532.645 400.6H529.165ZM531.905 394.74C532.652 394.74 533.239 394.507 533.665 394.04C534.092 393.573 534.305 392.927 534.305 392.1V390C534.305 389.173 534.092 388.527 533.665 388.06C533.239 387.593 532.652 387.36 531.905 387.36C531.145 387.36 530.552 387.587 530.125 388.04C529.712 388.493 529.505 389.147 529.505 390V392.1C529.505 392.953 529.712 393.607 530.125 394.06C530.552 394.513 531.145 394.74 531.905 394.74ZM543.938 397.16C543.058 397.16 542.298 396.993 541.658 396.66C541.018 396.327 540.518 395.847 540.158 395.22C539.811 394.58 539.638 393.827 539.638 392.96V390.04C539.638 389.16 539.811 388.407 540.158 387.78C540.518 387.153 541.018 386.673 541.658 386.34C542.298 386.007 543.058 385.84 543.938 385.84C544.818 385.84 545.578 386.007 546.218 386.34C546.858 386.673 547.351 387.153 547.698 387.78C548.058 388.407 548.238 389.153 548.238 390.02V392.96C548.238 393.827 548.058 394.58 547.698 395.22C547.351 395.847 546.858 396.327 546.218 396.66C545.578 396.993 544.818 397.16 543.938 397.16ZM543.938 395.56C544.724 395.56 545.338 395.34 545.778 394.9C546.218 394.46 546.438 393.813 546.438 392.96V390.04C546.438 389.187 546.218 388.54 545.778 388.1C545.338 387.66 544.724 387.44 543.938 387.44C543.164 387.44 542.551 387.66 542.098 388.1C541.658 388.54 541.438 389.187 541.438 390.04V392.96C541.438 393.813 541.658 394.46 542.098 394.9C542.551 395.34 543.164 395.56 543.938 395.56ZM551.63 397V395.36H555.53V387.64H552.13V386H557.33V395.36H561.03V397H551.63ZM556.23 384.02C555.79 384.02 555.443 383.907 555.19 383.68C554.936 383.453 554.81 383.147 554.81 382.76C554.81 382.36 554.936 382.047 555.19 381.82C555.443 381.58 555.79 381.46 556.23 381.46C556.67 381.46 557.016 381.58 557.27 381.82C557.523 382.047 557.65 382.36 557.65 382.76C557.65 383.147 557.523 383.453 557.27 383.68C557.016 383.907 556.67 384.02 556.23 384.02ZM563.762 397V386H565.562V388.1H565.942L565.562 388.52C565.562 387.653 565.822 386.987 566.342 386.52C566.862 386.04 567.582 385.8 568.502 385.8C569.609 385.8 570.489 386.14 571.142 386.82C571.795 387.5 572.122 388.427 572.122 389.6V397H570.322V389.8C570.322 389.013 570.109 388.413 569.682 388C569.269 387.573 568.702 387.36 567.982 387.36C567.235 387.36 566.642 387.587 566.202 388.04C565.775 388.493 565.562 389.147 565.562 390V397H563.762ZM577.134 400.6V398.96H580.634C581.194 398.96 581.601 398.833 581.854 398.58C582.121 398.327 582.254 397.933 582.254 397.4V396L582.294 394H581.934L582.274 393.7C582.274 394.5 582.007 395.133 581.474 395.6C580.941 396.067 580.227 396.3 579.334 396.3C578.201 396.3 577.307 395.933 576.654 395.2C576.001 394.453 575.674 393.453 575.674 392.2V389.88C575.674 388.627 576.001 387.633 576.654 386.9C577.307 386.167 578.201 385.8 579.334 385.8C580.227 385.8 580.941 386.033 581.474 386.5C582.007 386.967 582.274 387.6 582.274 388.4L581.934 388.1H582.274V386H584.054V397.4C584.054 398.387 583.747 399.167 583.134 399.74C582.534 400.313 581.694 400.6 580.614 400.6H577.134ZM579.874 394.74C580.621 394.74 581.207 394.507 581.634 394.04C582.061 393.573 582.274 392.927 582.274 392.1V390C582.274 389.173 582.061 388.527 581.634 388.06C581.207 387.593 580.621 387.36 579.874 387.36C579.114 387.36 578.521 387.587 578.094 388.04C577.681 388.493 577.474 389.147 577.474 390V392.1C577.474 392.953 577.681 393.607 578.094 394.06C578.521 394.513 579.114 394.74 579.874 394.74ZM603.898 397.16C603.018 397.16 602.258 396.993 601.618 396.66C600.978 396.327 600.478 395.847 600.118 395.22C599.772 394.58 599.598 393.827 599.598 392.96V390.04C599.598 389.16 599.772 388.407 600.118 387.78C600.478 387.153 600.978 386.673 601.618 386.34C602.258 386.007 603.018 385.84 603.898 385.84C604.778 385.84 605.538 386.007 606.178 386.34C606.818 386.673 607.312 387.153 607.658 387.78C608.018 388.407 608.198 389.153 608.198 390.02V392.96C608.198 393.827 608.018 394.58 607.658 395.22C607.312 395.847 606.818 396.327 606.178 396.66C605.538 396.993 604.778 397.16 603.898 397.16ZM603.898 395.56C604.685 395.56 605.298 395.34 605.738 394.9C606.178 394.46 606.398 393.813 606.398 392.96V390.04C606.398 389.187 606.178 388.54 605.738 388.1C605.298 387.66 604.685 387.44 603.898 387.44C603.125 387.44 602.512 387.66 602.058 388.1C601.618 388.54 601.398 389.187 601.398 390.04V392.96C601.398 393.813 601.618 394.46 602.058 394.9C602.512 395.34 603.125 395.56 603.898 395.56ZM611.731 397V386H613.531V388.1H613.911L613.531 388.52C613.531 387.653 613.791 386.987 614.311 386.52C614.831 386.04 615.551 385.8 616.471 385.8C617.577 385.8 618.457 386.14 619.111 386.82C619.764 387.5 620.091 388.427 620.091 389.6V397H618.291V389.8C618.291 389.013 618.077 388.413 617.651 388C617.237 387.573 616.671 387.36 615.951 387.36C615.204 387.36 614.611 387.587 614.171 388.04C613.744 388.493 613.531 389.147 613.531 390V397H611.731ZM641.375 397C640.735 397 640.175 396.873 639.695 396.62C639.215 396.367 638.842 396.007 638.575 395.54C638.308 395.073 638.175 394.527 638.175 393.9V384.04H634.475V382.4H639.975V393.9C639.975 394.353 640.102 394.713 640.355 394.98C640.608 395.233 640.948 395.36 641.375 395.36H644.875V397H641.375ZM650.907 397.2C649.747 397.2 648.834 396.907 648.167 396.32C647.501 395.72 647.167 394.913 647.167 393.9C647.167 392.873 647.501 392.067 648.167 391.48C648.834 390.893 649.734 390.6 650.867 390.6H654.267V389.5C654.267 388.82 654.061 388.3 653.647 387.94C653.247 387.567 652.674 387.38 651.927 387.38C651.274 387.38 650.727 387.52 650.287 387.8C649.847 388.067 649.594 388.433 649.527 388.9H647.727C647.847 387.953 648.294 387.2 649.067 386.64C649.841 386.08 650.807 385.8 651.967 385.8C653.234 385.8 654.234 386.127 654.967 386.78C655.701 387.433 656.067 388.32 656.067 389.44V397H654.307V394.9H654.007L654.307 394.6C654.307 395.4 653.994 396.033 653.367 396.5C652.754 396.967 651.934 397.2 650.907 397.2ZM651.347 395.78C652.201 395.78 652.901 395.567 653.447 395.14C653.994 394.713 654.267 394.167 654.267 393.5V391.94H650.907C650.307 391.94 649.834 392.107 649.487 392.44C649.141 392.773 648.967 393.227 648.967 393.8C648.967 394.413 649.174 394.9 649.587 395.26C650.014 395.607 650.601 395.78 651.347 395.78ZM665.059 397C664.113 397 663.373 396.747 662.839 396.24C662.319 395.733 662.059 395.02 662.059 394.1V387.64H658.959V386H662.059V382.9H663.859V386H668.259V387.64H663.859V394.1C663.859 394.94 664.259 395.36 665.059 395.36H668.059V397H665.059ZM675.852 397.2C674.985 397.2 674.225 397.027 673.572 396.68C672.932 396.333 672.432 395.847 672.072 395.22C671.725 394.58 671.552 393.84 671.552 393V390C671.552 389.147 671.725 388.407 672.072 387.78C672.432 387.153 672.932 386.667 673.572 386.32C674.225 385.973 674.985 385.8 675.852 385.8C676.718 385.8 677.472 385.973 678.112 386.32C678.765 386.667 679.265 387.153 679.612 387.78C679.972 388.407 680.152 389.147 680.152 390V391.94H673.312V393C673.312 393.867 673.532 394.533 673.972 395C674.412 395.453 675.038 395.68 675.852 395.68C676.545 395.68 677.105 395.56 677.532 395.32C677.958 395.067 678.218 394.693 678.312 394.2H680.112C679.992 395.12 679.538 395.853 678.752 396.4C677.978 396.933 677.012 397.2 675.852 397.2ZM678.392 390.74V390C678.392 389.133 678.172 388.467 677.732 388C677.305 387.533 676.678 387.3 675.852 387.3C675.038 387.3 674.412 387.533 673.972 388C673.532 388.467 673.312 389.133 673.312 390V390.58H678.532L678.392 390.74ZM689.344 397C688.704 397 688.144 396.873 687.664 396.62C687.184 396.367 686.81 396.007 686.544 395.54C686.277 395.073 686.144 394.527 686.144 393.9V384.04H682.444V382.4H687.944V393.9C687.944 394.353 688.07 394.713 688.324 394.98C688.577 395.233 688.917 395.36 689.344 395.36H692.844V397H689.344ZM697.396 400.6L699.016 396.32L694.936 386H696.936L699.496 392.8C699.589 393.027 699.676 393.3 699.756 393.62C699.836 393.927 699.903 394.187 699.956 394.4C700.009 394.187 700.076 393.927 700.156 393.62C700.236 393.3 700.316 393.027 700.396 392.8L702.796 386H704.736L699.316 400.6H697.396ZM710.048 392.9V389.3H711.048C711.901 389.3 712.575 389.067 713.068 388.6C713.575 388.12 713.828 387.487 713.828 386.7C713.828 385.913 713.575 385.287 713.068 384.82C712.575 384.34 711.895 384.1 711.028 384.1H708.528V382.4H711.028C711.961 382.4 712.768 382.58 713.448 382.94C714.141 383.287 714.675 383.78 715.048 384.42C715.435 385.06 715.628 385.82 715.628 386.7C715.628 387.46 715.468 388.147 715.148 388.76C714.828 389.36 714.381 389.84 713.808 390.2C713.248 390.56 712.595 390.76 711.848 390.8V392.9H710.048ZM710.628 397.1C710.281 397.1 709.995 396.987 709.768 396.76C709.541 396.533 709.428 396.247 709.428 395.9C709.428 395.553 709.541 395.267 709.768 395.04C709.995 394.813 710.281 394.7 710.628 394.7H711.228C711.615 394.7 711.908 394.813 712.108 395.04C712.321 395.253 712.428 395.533 712.428 395.88C712.428 396.227 712.315 396.52 712.088 396.76C711.861 396.987 711.575 397.1 711.228 397.1H710.628Z" fill="#1E1E1E"/>
<circle cx="1351.5" cy="449.5" r="29.5" fill="#3B5BDB"/>
<circle cx="348" cy="776" r="52" fill="#3B5BDB"/>
<circle cx="1351.5" cy="449.5" r="29.5" fill="#3B5BDB"/>
<circle cx="348" cy="776" r="52" fill="#3B5BDB"/>
</svg>
